<svg width="64" height="64" viewBox="0 0 64 64" fill="none" xmlns="http://www.w3.org/2000/svg">
<rect width="64" height="64" rx="8" fill="#2C3E50"/>
<path d="M32 20C35.3137 20 38 22.6863 38 26C38 29.3137 35.3137 32 32 32C28.6863 32 26 29.3137 26 26C26 22.6863 28.6863 20 32 20Z" fill="#F39C12"/>
<path d="M32 20V16" stroke="#F39C12" stroke-width="2" stroke-linecap="round"/>
<path d="M22 26H18" stroke="#F39C12" stroke-width="2" stroke-linecap="round"/>
<path d="M42 26H46" stroke="#F39C12" stroke-width="2" stroke-linecap="round"/>
<path d="M32 32V36" stroke="#F39C12" stroke-width="2" stroke-linecap="round"/>
<path d="M24 44H40L36 52H28L24 44Z" fill="#34495E"/>
<path d="M32 36V44" stroke="#34495E" stroke-width="2" stroke-linecap="round"/>
<path d="M28 40C28 36.6863 30.6863 34 34 34C37.3137 34 40 36.6863 40 40H28Z" fill="#BDC3C7"/>
<path d="M32 40V44" stroke="#BDC3C7" stroke-width="2" stroke-linecap="round"/>
<path d="M20 56V48L24 44" stroke="#34495E" stroke-width="2" stroke-linecap="round"/>
<path d="M44 56V48L40 44" stroke="#34495E" stroke-width="2" stroke-linecap="round"/>
</svg>