<svg width="24" height="24" viewBox="0 0 24 24" fill="none" xmlns="http://www.w3.org/2000/svg">
<path d="M9 3H15" stroke="#A1887F" stroke-width="2" stroke-linecap="round" stroke-linejoin="round"/>
<path d="M12 3V6" stroke="#A1887F" stroke-width="2" stroke-linecap="round" stroke-linejoin="round"/>
<path d="M8 6H16" stroke="#A1887F" stroke-width="2" stroke-linecap="round" stroke-linejoin="round"/>
<path d="M8 6C6.89543 6 6 6.89543 6 8V11C6 13.9458 8.44141 16.5391 11.2003 16.9583C11.5833 17.0223 12.4167 17.0223 12.7997 16.9583C15.5586 16.5391 18 13.9458 18 11V8C18 6.89543 17.1046 6 16 6H8Z" fill="#F48FB1"/>
<path d="M8 6H16C17.1046 6 18 6.89543 18 8V11C18 13.9458 15.5586 16.5391 12.7997 16.9583C12.4167 17.0223 11.5833 17.0223 11.2003 16.9583C8.44141 16.5391 6 13.9458 6 11V8C6 6.89543 6.89543 6 8 6" stroke="#EC407A" stroke-width="2" stroke-linecap="round" stroke-linejoin="round"/>
<path d="M9 13H15" stroke="white" stroke-width="1.5" stroke-linecap="round"/>
<path d="M12 10V16" stroke="white" stroke-width="1.5" stroke-linecap="round"/>
</svg>
