<svg width="64" height="64" viewBox="0 0 64 64" fill="none" xmlns="http://www.w3.org/2000/svg">
<path d="M51.2 51.2C51.2 51.2 50.1333 40.5333 32 40.5333C13.8667 40.5333 12.8 51.2 12.8 51.2C12.8 51.2 20.2667 54.4 32 54.4C43.7333 54.4 51.2 51.2 51.2 51.2Z" fill="#A3E635"/>
<path d="M50.1333 36.2667C50.1333 26.24 42.0267 18.1333 32 18.1333C21.9733 18.1333 13.8667 26.24 13.8667 36.2667C13.8667 40.5333 21.3333 41.6 32 41.6C42.6667 41.6 50.1333 40.5333 50.1333 36.2667Z" fill="#D9F99D"/>
<ellipse cx="25.6" cy="32" rx="3.2" ry="4.26667" fill="black"/>
<ellipse cx="38.4" cy="32" rx="3.2" ry="4.26667" fill="black"/>
<path d="M44.8 19.2C45.8667 16 42.6667 12.8 40.5333 14.9333" stroke="#65A30D" stroke-width="2" stroke-miterlimit="10" stroke-linecap="round" stroke-linejoin="round"/>
</svg>
