<svg width="64" height="64" viewBox="0 0 64 64" fill="none" xmlns="http://www.w3.org/2000/svg">
<path d="M32 54.4C44.376 54.4 54.4 44.376 54.4 32C54.4 19.624 44.376 9.6 32 9.6C19.624 9.6 9.6 19.624 9.6 32C9.6 44.376 19.624 54.4 32 54.4Z" fill="#FCA5A5"/>
<path d="M49.0667 50.1333C49.0667 50.1333 48 46.9333 42.6667 46.9333C37.3333 46.9333 32 50.1333 32 50.1333" stroke="#7F1D1D" stroke-width="3" stroke-miterlimit="10" stroke-linecap="round" stroke-linejoin="round"/>
<path d="M21.3333 46.9333C16 46.9333 14.9333 50.1333 14.9333 50.1333" stroke="#7F1D1D" stroke-width="3" stroke-miterlimit="10" stroke-linecap="round" stroke-linejoin="round"/>
<path d="M32 46.9333V50.1333" stroke="#7F1D1D" stroke-width="3" stroke-miterlimit="10" stroke-linecap="round" stroke-linejoin="round"/>
<path d="M45.8667 13.8667L41.6 19.2L42.6667 22.4L49.0667 19.2L45.8667 13.8667Z" fill="#F87171"/>
<path d="M18.1333 13.8667L22.4 19.2L21.3333 22.4L14.9333 19.2L18.1333 13.8667Z" fill="#F87171"/>
<path d="M32 50.1333C42.0267 50.1333 50.1333 42.0267 50.1333 32C50.1333 21.9733 42.0267 13.8667 32 13.8667C21.9733 13.8667 13.8667 21.9733 13.8667 32C13.8667 42.0267 21.9733 50.1333 32 50.1333Z" fill="#FECACA"/>
<path d="M32.1333 28.8H38.4" stroke="#7F1D1D" stroke-width="2" stroke-miterlimit="10" stroke-linecap="round" stroke-linejoin="round"/>
<path d="M25.6 28.8H31.8667" stroke="#7F1D1D" stroke-width="2" stroke-miterlimit="10" stroke-linecap="round" stroke-linejoin="round"/>
<path d="M38.4 35.2L34.1333 30.9333" stroke="#7F1D1D" stroke-width="2" stroke-miterlimit="10" stroke-linecap="round" stroke-linejoin="round"/>
<path d="M25.6 35.2L29.8667 30.9333" stroke="#7F1D1D" stroke-width="2" stroke-miterlimit="10" stroke-linecap="round" stroke-linejoin="round"/>
<path d="M32 37.3333C32 37.3333 27.7333 40.5333 25.6 40.5333" stroke="#7F1D1D" stroke-width="2" stroke-miterlimit="10" stroke-linecap="round" stroke-linejoin="round"/>
<path d="M32 37.3333C32 37.3333 36.2667 40.5333 38.4 40.5333" stroke="#7F1D1D" stroke-width="2" stroke-miterlimit="10" stroke-linecap="round" stroke-linejoin="round"/>
<path d="M21.3333 40.5333L19.2 43.7333" stroke="#7F1D1D" stroke-width="2" stroke-miterlimit="10" stroke-linecap="round" stroke-linejoin="round"/>
<path d="M42.6667 40.5333L44.8 43.7333" stroke="#7F1D1D" stroke-width="2" stroke-miterlimit="10" stroke-linecap="round" stroke-linejoin="round"/>
</svg>
