<svg width="64" height="64" viewBox="0 0 64 64" fill="none" xmlns="http://www.w3.org/2000/svg">
<g clip-path="url(#clip0_105_2)">
<path d="M48.7413 32.64C48.7413 41.664 41.4053 48.96 32.3413 48.96C23.2773 48.96 15.9413 41.664 15.9413 32.64C15.9413 23.616 23.2773 16.32 32.3413 16.32C41.4053 16.32 48.7413 23.616 48.7413 32.64Z" fill="#A5F3FC"/>
<path d="M41.8346 25.152C41.8346 29.856 37.6026 33.696 32.3466 33.696C27.0906 33.696 22.8586 29.856 22.8586 25.152C22.8586 20.448 27.0906 16.608 32.3466 16.608C37.6026 16.608 41.8346 20.448 41.8346 25.152Z" fill="#E0F2FE"/>
<path d="M49.2266 45.024C52.6826 42.432 54.9146 38.016 54.9146 32.928C54.9146 24.384 48.0746 17.568 39.4986 17.568C38.6666 17.568 37.8346 17.664 37.0026 17.76L38.9546 12.576L35.2106 11.232L32.8106 16.704C32.6506 16.704 32.4906 16.704 32.3306 16.704C23.0186 16.704 15.5306 23.904 15.5306 32.928C15.5306 37.152 17.2586 41.088 20.0426 44.064L10.3466 48.288L12.5786 52.8L21.0026 48.96C24.4586 51.648 28.5866 53.184 32.9066 53.184C38.6666 53.184 43.8506 50.88 47.4986 47.328L55.4666 52.032L58.2506 47.904L49.2266 45.024ZM39.4986 20.64C46.3386 20.64 51.8186 26.016 51.8186 32.832C51.8186 39.648 46.3386 45.024 39.4986 45.024C32.6786 45.024 27.1986 39.648 27.1986 32.832C27.1986 26.016 32.6786 20.64 39.4986 20.64Z" fill="#0891B2"/>
<path d="M40.32 29.376C40.32 30.816 39.168 32.064 37.728 32.064C36.288 32.064 35.136 30.816 35.136 29.376C35.136 27.936 36.288 26.784 37.728 26.784C39.168 26.784 40.32 27.936 40.32 29.376Z" fill="black"/>
<path d="M30.72 29.376C30.72 30.816 29.568 32.064 28.128 32.064C26.688 32.064 25.536 30.816 25.536 29.376C25.536 27.936 26.688 26.784 28.128 26.784C29.568 26.784 30.72 27.936 30.72 29.376Z" fill="black"/>
<path d="M36.7913 36.48C35.6393 38.4 33.3353 38.784 31.4273 37.632C29.5193 36.48 29.1353 34.176 30.2873 32.256C30.5753 31.776 31.0553 31.392 31.6313 31.2C31.9193 31.008 32.2073 30.912 32.5913 30.912C33.3593 30.912 34.0313 31.296 34.4153 31.968C35.4713 33.6 35.1833 35.616 34.0313 36.864" stroke="black" stroke-width="1.5" stroke-linecap="round" stroke-linejoin="round"/>
</g>
<defs>
<clipPath id="clip0_105_2">
<rect width="64" height="64" fill="white"/>
</clipPath>
</defs>
</svg>
