<svg width="80" height="80" viewBox="0 0 80 80" fill="none" xmlns="http://www.w3.org/2000/svg">
<path d="M40 80C62.0914 80 80 62.0914 80 40C80 17.9086 62.0914 0 40 0C17.9086 0 0 17.9086 0 40C0 62.0914 17.9086 80 40 80Z" fill="#2A3C2B"/>
<path d="M40 70C56.5685 70 70 56.5685 70 40C70 23.4315 56.5685 10 40 10C23.4315 10 10 23.4315 10 40C10 56.5685 23.4315 70 40 70Z" fill="#3D553E"/>
<path d="M20 60L60 20" stroke="#76A878" stroke-width="6" stroke-linecap="round"/>
<path d="M20 20H40L60 40V60" stroke="#90C492" stroke-width="4" stroke-linecap="round" stroke-linejoin="round"/>
<path d="M60 20H40L20 40V60" stroke="#90C492" stroke-width="4" stroke-linecap="round" stroke-linejoin="round"/>
</svg>
