<svg width="80" height="80" viewBox="0 0 80 80" fill="none" xmlns="http://www.w3.org/2000/svg">
<path d="M40 80C62.0914 80 80 62.0914 80 40C80 17.9086 62.0914 0 40 0C17.9086 0 0 17.9086 0 40C0 62.0914 17.9086 80 40 80Z" fill="#4A2E2E"/>
<path d="M40 70C56.5685 70 70 56.5685 70 40C70 23.4315 56.5685 10 40 10C23.4315 10 10 23.4315 10 40C10 56.5685 23.4315 70 40 70Z" fill="#603E3E"/>
<path d="M20 60L60 20" stroke="#E57373" stroke-width="8" stroke-linecap="round"/>
<path d="M20 20L60 60" stroke="#E57373" stroke-width="8" stroke-linecap="round"/>
<path d="M25 55L55 25" stroke="#FFAA91" stroke-width="4" stroke-linecap="round"/>
<path d="M25 25L55 55" stroke="#FFAA91" stroke-width="4" stroke-linecap="round"/>
</svg>
