<svg viewBox="0 0 1024 1024" xmlns="http://www.w3.org/2000/svg" fill="#000000"><g id="SVGRepo_bgCarrier" stroke-width="0"></g><g id="SVGRepo_tracerCarrier" stroke-linecap="round" stroke-linejoin="round"></g><g id="SVGRepo_iconCarrier"><path fill="#a2a2a2" d="M512 512a192 192 0 1 0 0-384 192 192 0 0 0 0 384zm0 64a256 256 0 1 1 0-512 256 256 0 0 1 0 512z"></path><path fill="#a2a2a2" d="M288 1024a224 224 0 0 1-224-224v-32a32 32 0 0 1 64 0v32a160 160 0 0 0 160 160h448a160 160 0 0 0 160-160v-32a32 32 0 1 1 64 0v32a224 224 0 0 1-224 224H288z"></path><path fill="#7a7a7a" d="M736 800a32 32 0 0 1-32-32v-96a160 160 0 0 0-160-160H480a160 160 0 0 0-160 160v96a32 32 0 1 1-64 0v-96a224 224 0 0 1 224-224h64a224 224 0 0 1 224 224v96a32 32 0 0 1-32 32z"></path></g></svg>